<svg xmlns="http://www.w3.org/2000/svg" width="791" height="257" viewBox="19.445 165.14 791 257"><path d="M103.903 254.94l-6.407 31.977L71.73 191.12H42l40.563 119.317v85.222h27.617v-85.223l38.45-119.316h-29.993zm99.335-63.82v.26c-20.093 0-33.605 9.866-40.537 29.593-6.93 19.73-10.395 45.314-10.395 76.758 0 36.498 4.98 61.964 14.944 76.406 9.962 14.44 23.415 21.663 40.36 21.663 19.365 0 32.386-9.38 39.062-28.148 6.677-18.763 10.016-42.76 10.016-71.988 0-35.494-4.334-61.746-13-78.76-8.664-17.016-22.148-25.61-40.45-25.783zm20.337 161.327c-3.666 13.54-9.737 20.31-18.216 20.31-7.42 0-13.518-6.017-18.285-18.048-4.77-12.03-7.153-33.134-7.153-63.32 0-20.867 1.478-38.59 4.438-53.163 2.96-14.573 9.252-21.947 18.878-22.12v.26c8.48 0 14.905 5.713 19.277 17.14 4.373 11.427 6.56 30.72 6.56 57.884 0 27.17-1.834 47.518-5.5 61.057zM324.113 191.12v.26c-20.093 0-33.604 9.866-40.537 29.593-6.932 19.73-10.396 45.314-10.396 76.758 0 36.498 4.98 61.964 14.945 76.406 9.963 14.44 23.416 21.663 40.36 21.663 19.366 0 32.387-9.38 39.063-28.148 6.678-18.763 10.016-42.76 10.016-71.988 0-35.494-4.334-61.746-13-78.76-8.665-17.016-22.15-25.61-40.45-25.783zm20.337 161.327c-3.666 13.54-9.737 20.31-18.216 20.31-7.42 0-13.516-6.017-18.284-18.048-4.77-12.03-7.153-33.134-7.153-63.32 0-20.867 1.478-38.59 4.438-53.163 2.958-14.573 9.25-21.947 18.878-22.12v.26c8.48 0 14.905 5.713 19.278 17.14s6.56 30.72 6.56 57.884c0 27.17-1.834 47.518-5.5 61.057zM464.347 191.12l-19.16 63.82-2.112 7.993-1.982-7.993-19.16-63.82H391.81l36.335 100.025L387.84 395.66h31.846l19.292-66.066 2.115-8.06 1.982 8.06 19.157 66.065h29.996l-38.452-104.515L494.21 191.12zm45.092-.208h17.772V395.66H509.44zm171.275 67.91h-2.21c-3.05.185-6.124 1.012-9.227 2.48-3.1 1.47-6.703 4-10.803 7.58v-77.97H638.5V395.65h19.975v-11.76c2.304 3.155 5.452 5.904 9.437 8.246 3.984 2.345 8.23 3.515 12.74 3.515 9.056 0 17.296-3.593 24.722-10.782 7.424-7.188 11.137-24.83 11.137-52.918v-18.424c0-20.09-3.443-34.23-10.33-42.42-6.885-8.188-15.376-12.283-25.465-12.283zm18.023 72.862c0 2.68-.054 5.737-.158 9.18-.104 3.44-.367 6.935-.786 10.47-.942 7.65-2.805 14.653-5.582 21.012-2.778 6.36-7.368 9.54-13.76 9.54-7.708 0-13.332-3.608-16.87-10.83-3.54-7.218-5.31-16.325-5.31-27.322v-36.717c0-11.57 1.566-19.768 4.7-24.597 3.136-4.827 6.533-7.817 10.188-8.965.836-.19 1.67-.334 2.507-.43.837-.095 1.673-.145 2.508-.145h1.72c5.33.384 10.132 3.608 14.417 9.68 4.282 6.075 6.426 19.58 6.426 40.52v8.604zm-101.652-62.8c-4.1-3.583-7.702-6.11-10.805-7.58-3.1-1.47-6.174-2.298-9.226-2.48h-2.21c-10.09 0-18.58 4.095-25.463 12.282-6.887 8.19-10.33 22.33-10.33 42.42v18.424c0 28.09 3.713 45.73 11.135 52.918 7.427 7.19 15.666 10.783 24.724 10.783 4.507 0 8.754-1.17 12.737-3.514 3.984-2.342 7.134-5.09 9.438-8.246v11.76h19.975V262.226h-19.975v6.658zm2.2 74.847c0 10.998-1.768 20.105-5.31 27.324-3.537 7.22-9.16 10.828-16.867 10.828-6.394 0-10.982-3.18-13.76-9.54-2.78-6.356-4.64-13.358-5.585-21.012-.418-3.534-.683-7.026-.786-10.47-.105-3.44-.16-6.5-.16-9.18v-8.604c0-20.94 2.146-34.444 6.427-40.52 4.285-6.07 9.088-9.296 14.417-9.68h1.72c.837 0 1.672.05 2.508.145.836.097 1.672.24 2.508.43 3.654 1.147 7.05 4.14 10.188 8.966 3.135 4.83 4.7 13.027 4.7 24.597v36.718zm188.277 11.193c-.213-1.856-.638-3.642-1.27-5.357-1.062-4.287-2.995-8.482-5.802-12.58-2.804-4.098-6.592-7.814-11.36-11.148-.945-.858-2.68-2.097-5.2-3.72-2.523-1.62-5.312-3.622-8.354-6.007-3.454-3-6.56-6.432-9.318-10.306-1.637-2.292-2.728-4.72-3.394-7.248-.576-1.626-.898-3.405-.898-5.27 0-2.728.687-5.263 1.855-7.408 1.198-2.517 3.226-4.723 6.194-6.574 3.492-2.18 7.272-3.27 11.34-3.27 1.747 0 3.626.242 5.632.722s4.04 1.296 6.1 2.448c1.955.962 3.938 2.28 5.943 3.962 2.005 1.68 3.835 3.625 5.48 5.832v-17.845c-2.636-2.14-5.08-3.837-7.346-5.09-2.265-1.257-4.446-2.255-6.552-3-2.212-.932-4.477-1.535-6.792-1.813-2.314-.278-5-.42-8.053-.42-10.634.38-18.53 3.662-23.688 9.853-5.16 6.188-7.738 13.16-7.738 20.906 0 1.644.104 3.31.315 5.006.208 1.693.52 3.317.94 4.866 1.047 3.772 2.647 7.38 4.8 10.815 2.145 3.438 4.742 6.56 7.784 9.364l5.474 4.727 6.164 5.316c5.087 4.3 9.737 8.845 13.96 13.625 4.218 4.783 6.33 10.087 6.33 15.92v2.438l-.038.128c-.04.81-.13 1.598-.28 2.364v.086l-.105.394c-.088.385-.19.762-.308 1.132l-.196.623-.044.127c-1.357 3.973-3.712 6.88-7.083 8.698-3.986 2.15-8.375 3.226-13.154 3.226h-3.034c-4.146-.384-8.19-1.464-12.125-3.24-3.934-1.773-6.857-4.056-8.77-6.843v18.26c2.464 1.53 5.81 2.99 10.04 4.373 4.23 1.388 8.54 2.18 12.936 2.367.962.19 1.815.29 2.565.29h4.982c.963 0 1.87-.1 2.73-.29 1.23 0 2.497-.05 3.785-.14 1.286-.1 2.342-.34 3.166-.725 6.694-2.204 12.15-6.49 16.375-12.864 4.222-6.373 6.334-13.487 6.334-21.35.003-1.712-.107-3.497-.32-5.357z" fill="#787779"/></svg>